<svg preserveAspectRatio="none" width="100%" height="100%" overflow="visible" style="display: block;" viewBox="0 0 22.5 22.5" fill="none" xmlns="http://www.w3.org/2000/svg">
<g id="Group">
<path id="Vector" d="M21.25 11.25H18.77C18.333 11.2491 17.9077 11.3913 17.5591 11.655C17.2106 11.9186 16.958 12.2892 16.84 12.71L14.49 21.07C14.4749 21.1219 14.4433 21.1675 14.4 21.2C14.3567 21.2325 14.3041 21.25 14.25 21.25C14.1959 21.25 14.1433 21.2325 14.1 21.2C14.0567 21.1675 14.0251 21.1219 14.01 21.07L8.49 1.43C8.47485 1.37807 8.44327 1.33246 8.4 1.3C8.35673 1.26754 8.30409 1.25 8.25 1.25C8.19591 1.25 8.14327 1.26754 8.1 1.3C8.05673 1.33246 8.02515 1.37807 8.01 1.43L5.66 9.79C5.54246 10.2092 5.29138 10.5785 4.94486 10.842C4.59835 11.1055 4.17532 11.2488 3.74 11.25H1.25" stroke="#00E676" stroke-width="2.5" stroke-linecap="round" stroke-linejoin="round"/>
</g>
</svg>
