<svg preserveAspectRatio="none" width="100%" height="100%" overflow="visible" style="display: block;" viewBox="0 0 18 18" fill="none" xmlns="http://www.w3.org/2000/svg">
<g id="Icon">
<path id="Vector" d="M7.701 15.75C7.83266 15.978 8.02202 16.1673 8.25003 16.299C8.47805 16.4307 8.7367 16.5 9 16.5C9.26325 16.5 9.52191 16.4307 9.74997 16.299C9.97803 16.1673 10.1673 15.978 10.299 15.75" stroke="#B3B3B3" stroke-width="1.5" stroke-linecap="round" stroke-linejoin="round"/>
<path id="Vector_2" d="M2.4465 11.4945C2.34852 11.6019 2.28387 11.7355 2.26039 11.8789C2.23691 12.0224 2.25564 12.1695 2.31428 12.3025C2.37292 12.4356 2.46895 12.5487 2.5907 12.6281C2.71243 12.7075 2.85464 12.7498 3 12.75H15C15.1454 12.75 15.2876 12.7079 15.4094 12.6286C15.5312 12.5493 15.6273 12.4363 15.6862 12.3034C15.745 12.1704 15.7639 12.0233 15.7405 11.8798C15.7173 11.7364 15.6528 11.6028 15.555 11.4952C14.5575 10.467 13.5 9.37422 13.5 6C13.5 4.80652 13.0259 3.66193 12.1819 2.81802C11.3381 1.97411 10.1935 1.5 9 1.5C7.80653 1.5 6.66193 1.97411 5.81802 2.81802C4.9741 3.66193 4.5 4.80652 4.5 6C4.5 9.37422 3.44175 10.467 2.4465 11.4945Z" stroke="#B3B3B3" stroke-width="1.5" stroke-linecap="round" stroke-linejoin="round"/>
</g>
</svg>
