<svg preserveAspectRatio="none" width="100%" height="100%" overflow="visible" style="display: block;" viewBox="0 0 18 18" fill="none" xmlns="http://www.w3.org/2000/svg">
<g id="Icon">
<path id="Vector" d="M7.5 1.5V3" stroke="#B3B3B3" stroke-width="1.5" stroke-linecap="round" stroke-linejoin="round"/>
<path id="Vector_2" d="M10.5 1.5V3" stroke="#B3B3B3" stroke-width="1.5" stroke-linecap="round" stroke-linejoin="round"/>
<path id="Vector_3" d="M12 6C12.1989 6 12.3897 6.07901 12.5303 6.21967C12.671 6.36033 12.75 6.55109 12.75 6.75V12.75C12.75 13.5456 12.434 14.3087 11.8714 14.8713C11.3087 15.4339 10.5457 15.75 9.74997 15.75H5.25C4.45435 15.75 3.69129 15.4339 3.12868 14.8713C2.56607 14.3087 2.25 13.5456 2.25 12.75V6.75C2.25 6.55109 2.32902 6.36033 2.46967 6.21967C2.61032 6.07901 2.80109 6 3 6H13.5C14.2957 6 15.0587 6.31607 15.6213 6.87868C16.1839 7.44129 16.5 8.20435 16.5 9C16.5 9.79569 16.1839 10.5587 15.6213 11.1213C15.0587 11.6839 14.2957 12 13.5 12H12.75" stroke="#B3B3B3" stroke-width="1.5" stroke-linecap="round" stroke-linejoin="round"/>
<path id="Vector_4" d="M4.5 1.5V3" stroke="#B3B3B3" stroke-width="1.5" stroke-linecap="round" stroke-linejoin="round"/>
</g>
</svg>
