<svg preserveAspectRatio="none" width="100%" height="100%" overflow="visible" style="display: block;" viewBox="0 0 16 16" fill="none" xmlns="http://www.w3.org/2000/svg">
<g id="Edit3">
<path id="Vector" d="M8 13.3333H14" stroke="#B3B3B3" stroke-width="1.33333" stroke-linecap="round" stroke-linejoin="round"/>
<path id="Vector_2" d="M10.9173 2.41467C11.1827 2.14927 11.5427 2.00018 11.918 2.00018C12.2933 2.00018 12.6533 2.14927 12.9187 2.41467C13.1841 2.68006 13.3332 3.04001 13.3332 3.41533C13.3332 3.79066 13.1841 4.15061 12.9187 4.416L4.912 12.4233C4.7534 12.5819 4.55735 12.698 4.342 12.7607L2.42733 13.3193C2.36997 13.3361 2.30916 13.3371 2.25127 13.3222C2.19339 13.3074 2.14055 13.2773 2.0983 13.235C2.05604 13.1928 2.02593 13.1399 2.0111 13.0821C1.99626 13.0242 1.99727 12.9634 2.014 12.906L2.57267 10.9913C2.63548 10.7762 2.7515 10.5804 2.91 10.422L10.9173 2.41467Z" stroke="#B3B3B3" stroke-width="1.33333" stroke-linecap="round" stroke-linejoin="round"/>
</g>
</svg>
