<svg width="24" height="24" viewBox="0 0 24 24" fill="none" xmlns="http://www.w3.org/2000/svg">
  <rect x="1.5" y="1.5" width="21" height="21" rx="6" fill="#101214"/>
  <rect x="1.5" y="1.5" width="21" height="21" rx="6" stroke="#2A2D31"/>
  <path d="M8.1 8.7C8.1 7.74605 8.87355 6.9725 9.8275 6.9725H10.5375C11.4914 6.9725 12.265 7.74605 12.265 8.7V10.1825H10.5175V8.72H9.8475V10.1825C9.8475 11.1365 9.07395 11.91 8.12 11.91H7.41C6.45605 11.91 5.6825 11.1365 5.6825 10.1825V8.7C5.6825 7.74605 6.45605 6.9725 7.41 6.9725H8.1V8.7Z" fill="#34A853"/>
  <path d="M15.9 8.7C15.9 7.74605 15.1264 6.9725 14.1725 6.9725H13.4625C12.5086 6.9725 11.735 7.74605 11.735 8.7V10.1825H13.4825V8.72H14.1525V10.1825C14.1525 11.1365 14.9261 11.91 15.88 11.91H16.59C17.5439 11.91 18.3175 11.1365 18.3175 10.1825V8.7C18.3175 7.74605 17.5439 6.9725 16.59 6.9725H15.9V8.7Z" fill="#4285F4"/>
  <path d="M8.1 15.3C8.1 16.254 8.87355 17.0275 9.8275 17.0275H10.5375C11.4914 17.0275 12.265 16.254 12.265 15.3V13.8175H10.5175V15.28H9.8475V13.8175C9.8475 12.8635 9.07395 12.09 8.12 12.09H7.41C6.45605 12.09 5.6825 12.8635 5.6825 13.8175V15.3C5.6825 16.254 6.45605 17.0275 7.41 17.0275H8.1V15.3Z" fill="#FBBC05"/>
  <path d="M15.9 15.3C15.9 16.254 15.1264 17.0275 14.1725 17.0275H13.4625C12.5086 17.0275 11.735 16.254 11.735 15.3V13.8175H13.4825V15.28H14.1525V13.8175C14.1525 12.8635 14.9261 12.09 15.88 12.09H16.59C17.5439 12.09 18.3175 12.8635 18.3175 13.8175V15.3C18.3175 16.254 17.5439 17.0275 16.59 17.0275H15.9V15.3Z" fill="#EA4335"/>
</svg>
