<svg preserveAspectRatio="none" width="100%" height="100%" overflow="visible" style="display: block;" viewBox="0 0 18 18" fill="none" xmlns="http://www.w3.org/2000/svg">
<g id="Icon">
<path id="Vector" d="M4.5 16.5C5.74264 16.5 6.75 15.4926 6.75 14.25C6.75 13.0073 5.74264 12 4.5 12C3.25736 12 2.25 13.0073 2.25 14.25C2.25 15.4926 3.25736 16.5 4.5 16.5Z" stroke="#B3B3B3" stroke-width="1.5" stroke-linecap="round" stroke-linejoin="round"/>
<path id="Vector_2" d="M6.75 14.25H13.125C13.8212 14.25 14.4888 13.9734 14.9811 13.4812C15.4734 12.9889 15.75 12.3212 15.75 11.625C15.75 10.9288 15.4734 10.2612 14.9811 9.76887C14.4888 9.27657 13.8212 9 13.125 9H4.875C4.17881 9 3.51113 8.72344 3.01884 8.23116C2.52656 7.73888 2.25 7.07119 2.25 6.375C2.25 5.67881 2.52656 5.01113 3.01884 4.51885C3.51113 4.02656 4.17881 3.75 4.875 3.75H11.25" stroke="#B3B3B3" stroke-width="1.5" stroke-linecap="round" stroke-linejoin="round"/>
<path id="Vector_3" d="M13.5 6C14.7426 6 15.75 4.99264 15.75 3.75C15.75 2.50736 14.7426 1.5 13.5 1.5C12.2574 1.5 11.25 2.50736 11.25 3.75C11.25 4.99264 12.2574 6 13.5 6Z" stroke="#B3B3B3" stroke-width="1.5" stroke-linecap="round" stroke-linejoin="round"/>
</g>
</svg>
