<svg width="262" height="64" viewBox="0 0 262 64" fill="none" xmlns="http://www.w3.org/2000/svg">
<path d="M259.83 52.61C256.21 54.69 251.63 56.92 248.1 55.88L238.56 53.06L233.56 49.98C231.14 49.14 224.25 50.47 219.2 47.71C215.33 45.6 215.68 41.34 217.01 36.89L221.12 23.23C223.25 16.14 228.68 13.21 235.84 12.41C241.09 11.82 246.23 11.89 251.48 12.34C254.04 12.56 256.43 13.08 258.67 14.21C262.67 16.24 262.08 21.03 260.77 25.44L257 38.19L254.83 42.57C252.57 45.8 249.42 47.65 245.26 48.91C249.73 51.39 254.58 52.16 259.83 52.61ZM242.15 41.66C244.58 41.26 246.34 39.74 247.01 37.52L251.04 24.12C251.59 22.31 250.51 20.7 248.65 20.38C244.57 19.69 240.45 19.74 236.32 20.27C233.72 20.6 231.52 22.17 230.75 24.77L227.06 37.33C226.75 38.39 226.8 39.48 227.36 40.32C228.93 42.68 237.71 42.38 242.16 41.66H242.15Z" fill="#EDEDED"/>
<path d="M95.8599 48.71H70.3099L75.0199 41.6L95.7399 41.5C98.9199 41.48 101.95 39.12 101.18 37.09C100.91 36.36 100.13 35.82 99.2599 35.64L88.2899 33.49C86.0799 33.06 83.9199 32.34 82.2399 30.79C78.5599 27.39 81.2799 18.43 87.9599 14.9C90.4699 13.58 93.0999 13.14 95.9099 12.82H116.85L114.11 20.31L95.5299 20.47C93.4299 20.49 91.6599 21.55 90.8799 23.39C90.3399 24.66 90.8399 25.96 92.1899 26.26L99.5699 27.9L106.25 29.39C108.03 29.79 109.96 31.25 110.49 33.17C111.96 38.52 109.16 43.96 104.32 46.48C101.73 47.83 99.0299 48.7 95.8599 48.7V48.71Z" fill="#00E676"/>
<path d="M73.49 15.52C53.39 17.12 33.65 18.76 13.58 19.29L0 17.58L41.04 9.24L87.16 0L80.21 12.39C78.55 14.48 76.3 15.14 73.48 15.52H73.49Z" fill="#00E676"/>
<path d="M64.66 32.69L20.47 32.71L8.16003 30.57L49.17 23.99L74.94 20.25L69.76 29.23C68.82 30.87 67.13 32.7 64.65 32.7L64.66 32.69Z" fill="#00E676"/>
<path d="M131.44 42.96L129.53 48.72L119.14 48.62C117.44 48.6 115.66 47.92 114.91 46.32C114.22 44.84 114.32 42.95 114.88 41.4L119.29 29.15L114.12 29.03L116.19 23.36L121.32 23.27L124.25 15.17H132.23L129.67 23.28L136.61 23.32L134.83 29.02L127.62 29.16L123.47 41.4C123.22 42.13 124.48 42.78 125.02 42.8L131.43 42.96H131.44Z" fill="#00E676"/>
<path d="M202.72 23.37L200.63 26.27L183.64 48.75L174.63 48.71L173.01 23.4L181.23 23.33L182.29 39.89L194.1 23.39L202.72 23.37Z" fill="#00E676"/>
<path d="M207.48 48.68L197.75 48.74L208.57 12.81L218.29 12.75L207.48 48.68Z" fill="#EDEDED"/>
<path d="M144.71 37.54L141.16 48.72L132.87 48.69L141.1 23.36L148.86 23.29C148.78 24.01 148.44 24.43 148.67 25.33C150.27 24.03 152.04 23.21 154.05 23.2L158.72 23.16L156.62 29.45C153.86 29.39 151.17 29.49 148.66 30.47C147.25 31.02 146.58 31.98 146.12 33.35L144.7 37.53L144.71 37.54Z" fill="#00E676"/>
<path d="M162.14 48.66L153.71 48.7L162.08 23.33L170.24 23.32L162.14 48.66Z" fill="#00E676"/>
<path d="M172.05 18.56L163.86 18.63L165.72 14.13C166.43 13.27 167.45 12.74 168.61 12.73L174.48 12.7L172.04 18.56H172.05Z" fill="#00E676"/>
<path d="M27.19 63.68L41.22 46.78C32.88 46.4 24.91 45.08 16.63 43.31L45.1 39.1C51.49 38.15 57.52 37.5 63.85 37.15L57.55 42.88C51.75 47.47 46.03 51.78 39.78 55.73L27.18 63.69L27.19 63.68Z" fill="#00E676"/>
</svg>
